<?xml version="1.0" encoding="utf-8"?>
<!-- Uploaded to: SVG Repo, www.svgrepo.com, Generator: SVG Repo Mixer Tools -->
<!DOCTYPE svg PUBLIC "-//W3C//DTD SVG 1.1//EN" "http://www.w3.org/Graphics/SVG/1.1/DTD/svg11.dtd">
<svg fill="#000000" version="1.1" id="Layer_1" xmlns="http://www.w3.org/2000/svg" xmlns:xlink="http://www.w3.org/1999/xlink" 
	 width="800px" height="800px" viewBox="0 0 512 512" enable-background="new 0 0 512 512" xml:space="preserve">
<g>
	<path d="M189.129,318.866c1.791,5.27,2.834,9.944,2.834,13.722c0,30.527-29.9,55.263-66.771,55.263S58.42,363.115,58.42,332.588
		c0-3.777,1.043-8.452,2.834-13.722c-31.07,12.987-52.928,43.654-52.928,79.442v76.565c0,16.27,13.191,29.457,29.443,29.457h174.813
		c16.283,0,29.443-13.187,29.443-29.457v-76.565C242.025,362.521,220.205,331.845,189.129,318.866z"/>
	<path d="M62.002,316.89c13.455,23.997,36.449,42.652,63.189,42.652s49.74-18.655,63.189-42.652
		c2.018-3.632,3.777-7.41,5.342-11.237c4.656-11.282,7.295-23.199,7.295-34.617c0-41.822-34.004-75.85-75.826-75.85
		s-75.859,34.027-75.859,75.85c0,11.418,2.672,23.335,7.328,34.617C58.225,309.48,59.984,313.257,62.002,316.89z M125.191,223.255
		c26.35,0,47.785,21.439,47.785,47.781c0,27.203-22.051,60.445-47.785,60.445c-25.729,0-47.781-33.243-47.781-60.445
		C77.41,244.694,98.842,223.255,125.191,223.255z"/>
	<path d="M450.777,318.866c1.791,5.27,2.834,9.944,2.834,13.722c0,30.527-29.9,55.263-66.771,55.263
		c-36.869,0-66.771-24.736-66.771-55.263c0-3.777,1.043-8.452,2.834-13.722c-31.074,12.987-52.932,43.654-52.932,79.442v76.565
		c0,16.27,13.191,29.457,29.447,29.457h174.809c16.287,0,29.447-13.187,29.447-29.457v-76.565
		C503.674,362.521,481.848,331.845,450.777,318.866z"/>
	<path d="M310.982,271.036c0,11.418,2.67,23.335,7.326,34.617c1.564,3.827,3.32,7.604,5.342,11.237
		c13.451,23.997,36.445,42.652,63.189,42.652c26.74,0,49.736-18.655,63.189-42.652c2.018-3.632,3.777-7.41,5.342-11.237
		c4.656-11.282,7.297-23.199,7.297-34.617c0-41.822-34.006-75.85-75.828-75.85S310.982,229.214,310.982,271.036z M386.84,223.255
		c26.352,0,47.781,21.439,47.781,47.781c0,27.203-22.051,60.445-47.781,60.445c-25.732,0-47.785-33.243-47.785-60.445
		C339.055,244.694,360.49,223.255,386.84,223.255z"/>
	<path d="M291.375,216.984V197.48c11.398-6.552,19.213-18.736,19.213-32.798V151.8c17.752-15.686,27.85-37.927,27.85-61.716
		c0-48.547-42.211-87.395-91.852-81.894c-37.424,4.163-67.846,34.318-72.371,71.682c-3.293,27.353,6.838,53.907,27.225,71.928
		v12.883c0,14.062,7.818,26.246,19.219,32.798v19.503c0,10.04,8.143,18.184,18.174,18.184h5.246v3.787
		c0,6.529,5.311,11.813,11.822,11.813h0.23c6.512,0,11.822-5.283,11.822-11.813v-3.787h5.242
		C283.23,235.167,291.375,227.023,291.375,216.984z M228.707,110.734h3.188v72.78c-7.455-2.988-12.766-10.289-12.766-18.832V143.42
		l-3.355-2.644c-17.783-14.148-26.771-36.114-24.037-58.777c3.551-29.339,27.457-53,56.805-56.274
		c2.508-0.272,5.016-0.408,7.459-0.408c35.732,0,64.785,29.044,64.785,64.767c0,19.812-8.924,38.29-24.527,50.692l-3.355,2.644
		v21.263c0,8.543-5.279,15.844-12.77,18.832v-72.78h3.193c7.199,0,13.063-5.836,13.063-13.05v-6.897
		c0-7.215-5.863-13.055-13.063-13.055h-54.619c-7.201,0-13.064,5.84-13.064,13.055v6.897
		C215.643,104.898,221.506,110.734,228.707,110.734z M271.277,184.997h-30.523v-74.263h30.523V184.997z"/>
</g>
</svg>